<svg xmlns="http://www.w3.org/2000/svg" xml:space="preserve" width="280px" height="280px" version="1.1" style="shape-rendering:geometricPrecision; text-rendering:geometricPrecision; image-rendering:optimizeQuality; fill-rule:evenodd; clip-rule:evenodd"
viewBox="0 0 280 280">
  <circle fill="blue" cx="140" cy="140" r="140"/>
  <path fill="white" d="M36 211l0 -89 -9 0 0 -14 9 0 0 -10c0,-7 1,-12 1,-16 1,-4 3,-8 6,-11 2,-2 6,-4 10,-4 3,0 6,1 10,2l-2 15c-2,-1 -4,-1 -6,-1 -3,0 -5,1 -6,3 -2,3 -2,7 -2,13l0 9 12 0 0 14 -12 0 0 89 -11 0zm71 -13c-4,5 -7,9 -11,11 -4,3 -7,4 -12,4 -6,0 -12,-3 -15,-8 -4,-6 -6,-13 -6,-21 0,-5 1,-10 2,-14 2,-4 4,-7 6,-10 2,-2 4,-4 7,-6 2,-1 5,-1 10,-2 8,-2 14,-4 18,-6 0,-3 0,-4 0,-5 0,-7 -1,-12 -3,-15 -2,-3 -6,-5 -12,-5 -4,0 -8,1 -10,4 -3,3 -5,8 -6,15l-10 -2c1,-8 2,-13 5,-18 2,-4 5,-8 9,-10 4,-3 9,-4 14,-4 5,0 10,1 13,3 3,2 6,5 7,8 2,3 3,7 4,12 0,3 0,8 0,16l0 23c0,16 0,26 1,30 0,5 1,9 2,13l-11 0c-1,-4 -1,-8 -2,-13zm-1 -39c-3,3 -9,5 -17,7 -4,1 -7,2 -9,3 -2,2 -3,4 -4,6 -1,2 -2,5 -2,8 0,5 2,9 4,12 2,3 5,4 9,4 4,0 8,-1 11,-4 3,-3 5,-7 7,-12 1,-4 1,-10 1,-17l0 -7zm37 52l-10 0 0 -141 11 0 0 50c4,-9 10,-14 17,-14 3,0 7,1 10,4 4,3 7,6 9,11 2,4 4,10 5,16 1,7 2,14 2,21 0,17 -3,31 -8,41 -5,9 -12,14 -19,14 -7,0 -13,-5 -17,-15l0 13zm0 -52c0,12 1,21 3,26 3,9 8,14 13,14 5,0 9,-4 12,-10 3,-7 5,-17 5,-30 0,-13 -2,-23 -5,-29 -3,-6 -7,-10 -11,-10 -5,0 -9,4 -12,10 -4,7 -5,16 -5,29zm66 52l-10 0 0 -141 11 0 0 50c4,-9 10,-14 17,-14 4,0 7,1 11,4 3,3 6,6 8,11 2,4 4,10 5,16 2,7 2,14 2,21 0,17 -2,31 -8,41 -5,9 -11,14 -19,14 -7,0 -13,-5 -17,-15l0 13zm0 -52c0,12 1,21 3,26 3,9 8,14 14,14 4,0 8,-4 11,-10 4,-7 5,-17 5,-30 0,-13 -1,-23 -4,-29 -4,-6 -7,-10 -12,-10 -5,0 -9,4 -12,10 -3,7 -5,16 -5,29z"/>
</svg>
