<!--
<svg xmlns="http://www.w3.org/2000/svg" viewBox="0 0 448 512">
<path d="M432 416H16a16 16 0 0 0-16 16v32a16 16 0 0 0 16 16h416a16 16 0 0 0 16-16v-32a16 16 0 0 0-16-16zm0-128H16a16 16 0 0 0-16 16v32a16 16 0 0 0 16 16h416a16 16 0 0 0 16-16v-32a16 16 0 0 0-16-16zm0-128H16a16 16 0 0 0-16 16v32a16 16 0 0 0 16 16h416a16 16 0 0 0 16-16v-32a16 16 0 0 0-16-16zm0-128H16A16 16 0 0 0 0 48v32a16 16 0 0 0 16 16h416a16 16 0 0 0 16-16V48a16 16 0 0 0-16-16z"/>
</svg>
-->
<svg xmlns="http://www.w3.org/2000/svg" viewBox="0 0 363 481">
<path d="M0 481l0 -481 180 0c37,0 67,5 89,15 22,9 39,24 52,45 13,20 19,41 19,63 0,21 -6,40 -17,58 -11,18 -28,33 -50,44 29,9 51,23 67,44 16,20 23,45 23,72 0,23 -4,44 -14,63 -9,20 -21,35 -35,45 -14,11 -32,19 -53,24 -21,5 -47,8 -77,8l-184 0zm64 -279l104 0c28,0 48,-2 61,-5 16,-5 28,-13 36,-24 8,-12 12,-26 12,-43 0,-16 -3,-30 -11,-42 -8,-12 -19,-20 -33,-25 -14,-4 -39,-7 -73,-7l-96 0 0 146zm0 223l120 0c20,0 35,-1 43,-3 15,-2 27,-7 37,-13 10,-6 18,-15 24,-27 6,-12 10,-25 10,-40 0,-18 -5,-34 -14,-47 -9,-14 -22,-23 -39,-28 -16,-6 -39,-8 -70,-8l-111 0 0 166z"/>
</svg>
