
<svg xmlns="http://www.w3.org/2000/svg" xml:space="preserve" width="500px" height="500px" version="1.1" style="shape-rendering:geometricPrecision; text-rendering:geometricPrecision; image-rendering:optimizeQuality; fill-rule:evenodd; clip-rule:evenodd"
viewBox="0 0 272 272" xmlns:xlink="http://www.w3.org/1999/xlink">
<path id="cog.svg" class="fil0" d="M268 169l-24 -14c2,-13 2,-26 0,-38l24 -14c3,-1 4,-5 4,-8 -7,-19 -18,-37 -32,-51 -2,-3 -6,-3 -8,-2l-25 14c-10,-9 -22,-15 -34,-19l0 -27c0,-3 -3,-6 -6,-7 -21,-4 -42,-4 -62,0 -4,1 -6,4 -6,7l0 27c-12,4 -24,11 -35,19l-24 -14c-3,-1 -6,-1 -8,2 -15,14 -25,32 -32,52 -1,2 1,6 3,7l25 14c-3,12 -3,25 0,38l-25 14c-2,1 -4,4 -3,7 7,20 17,37 32,52 2,2 5,3 8,1l24 -13c11,8 23,15 35,19l0 27c0,3 3,6 6,7 21,4 42,4 62,0 3,-1 6,-4 6,-7l0 -27c12,-4 24,-11 34,-19l25 13c3,2 6,1 8,-1 14,-14 25,-32 32,-52 0,-3 -1,-6 -4,-7l0 0zm-132 11c-25,0 -46,-20 -46,-44 0,-24 21,-44 46,-44 25,0 46,20 46,44 0,24 -21,44 -46,44z" fill="#3700EA"/>
 
</svg>
