<svg xmlns="http://www.w3.org/2000/svg" xml:space="preserve" width="100px" height="78px" version="1.1" style="shape-rendering:geometricPrecision; text-rendering:geometricPrecision; image-rendering:optimizeQuality; fill-rule:evenodd; clip-rule:evenodd"
viewBox="0 0 64 50">
  <path fill="#009933" d="M59 42c3,-3 5,-6 5,-10 0,-8 -6,-14 -15,-17 0,1 1,2 1,3 0,11 -12,21 -27,21 -1,0 -2,0 -4,0 4,6 12,11 22,11 4,0 8,-1 12,-3 2,1 6,3 10,3 0,0 0,-1 1,-1 0,0 0,-1 -1,-1 0,0 -2,-3 -4,-6z"/>
  <path fill="#009933" d="M46 18c0,-10 -10,-18 -23,-18 -13,0 -23,8 -23,18 0,3 2,7 4,10 -1,3 -4,6 -4,6 0,0 0,1 0,1 0,0 1,0 1,0 4,0 7,-1 10,-2 3,1 7,2 12,2 13,0 23,-8 23,-17l0 0z"/>
</svg>
