<?xml version="1.0" encoding="UTF-8"?>
<!DOCTYPE svg PUBLIC "-//W3C//DTD SVG 1.1//EN" "http://www.w3.org/Graphics/SVG/1.1/DTD/svg11.dtd">
<!-- Creator: CorelDRAW Home & Student X7 -->
<svg xmlns="http://www.w3.org/2000/svg" xml:space="preserve" width="500px" height="500px" version="1.1" style="shape-rendering:geometricPrecision; text-rendering:geometricPrecision; image-rendering:optimizeQuality; fill-rule:evenodd; clip-rule:evenodd"
viewBox="0 0 346 346"
 xmlns:xlink="http://www.w3.org/1999/xlink">
 <defs>
  <style type="text/css">
   <![CDATA[
    .fil0 {fill:#3700EA}
   ]]>
  </style>
 </defs>
 <g id="Plan_x0020_1">
  <metadata id="CorelCorpID_0Corel-Layer"/>
  <path id="home.svg" class="fil0" d="M168 90l-110 117 0 127c0,7 4,12 9,12l68 0c5,0 9,-6 9,-13 0,0 0,0 0,0l0 -73c0,-7 4,-13 10,-13l38 0c6,0 10,6 10,13l0 73c0,0 0,0 0,0 0,7 4,13 9,13 0,0 0,0 0,0l68 0c5,0 9,-5 9,-12l0 -127 -110 -117c-2,-2 -3,-2 -5,-2 -2,0 -3,0 -5,2l0 0zm175 80l-50 -54 0 -107c0,-5 -3,-9 -7,-9l-34 0c-4,0 -7,4 -7,9l0 56 -54 -57c-5,-5 -11,-8 -18,-8 -7,0 -13,3 -18,8l-152 162c-2,1 -3,4 -3,7 0,2 1,4 2,6l15 24c1,2 3,3 6,3 1,0 3,-1 4,-2l141 -150c2,-1 3,-2 5,-2 2,0 3,1 5,2l141 150c1,1 3,2 5,2 2,0 4,-1 5,-3l15 -24c1,-2 2,-4 2,-6 0,-3 -1,-6 -3,-7l0 0z"/>
 </g>
</svg>
