<svg xmlns="http://www.w3.org/2000/svg" xml:space="preserve" width="159px" height="200px" version="1.1" style="shape-rendering:geometricPrecision; text-rendering:geometricPrecision; image-rendering:optimizeQuality; fill-rule:evenodd; clip-rule:evenodd"
viewBox="0 0 86 108">
  <path fill="red" d="M77 47l-5 0 0 -15c0,-18 -13,-32 -29,-32 -16,0 -29,14 -29,32l0 15 -5 0c-5,0 -9,5 -9,10l0 41c0,5 4,10 9,10l68 0c5,0 9,-5 9,-10l0 -41c0,-5 -4,-10 -9,-10zm-20 0l-28 0 0 -15c0,-8 6,-15 14,-15 8,0 14,7 14,15l0 15z"/>
  <path fill="#3700EA" d="M12 87l0 -16 -3 0 0 -3 3 0 0 -2c0,-1 0,-2 0,-3 1,0 1,-1 2,-2 1,0 2,0 3,0 1,0 2,0 3,0l0 3c-1,0 -2,0 -2,0 -1,0 -2,0 -2,0 -1,1 -1,1 -1,2l0 2 4 0 0 3 -4 0 0 16 -3 0zm21 -3c-1,1 -2,2 -3,2 -1,1 -2,1 -4,1 -2,0 -3,0 -4,-1 -1,-1 -2,-3 -2,-4 0,-1 0,-2 1,-3 0,0 1,-1 1,-2 1,0 2,0 3,-1 0,0 1,0 2,0 3,0 5,-1 6,-1 0,-1 0,-1 0,-1 0,-1 0,-2 -1,-3 -1,0 -2,-1 -3,-1 -2,0 -3,1 -4,1 0,1 -1,2 -1,3l-3 -1c0,-1 0,-2 1,-3 1,-1 2,-1 3,-2 1,0 2,0 4,0 2,0 3,0 4,0 1,1 2,1 2,2 0,0 1,1 1,2 0,0 0,1 0,3l0 4c0,3 0,5 0,5 0,1 1,2 1,3l-3 0c0,-1 -1,-2 -1,-3zm0 -7c-1,1 -3,1 -5,2 -1,0 -2,0 -3,0 0,0 -1,1 -1,1 0,1 -1,1 -1,2 0,0 1,1 1,2 1,0 2,1 3,1 1,0 2,-1 3,-1 1,-1 2,-1 2,-2 1,-1 1,-2 1,-3l0 -2zm11 10l-3 0 0 -26 3 0 0 9c1,-1 3,-2 5,-2 1,0 2,0 3,0 1,1 2,2 3,2 0,1 1,2 1,3 1,2 1,3 1,4 0,3 -1,6 -2,7 -2,2 -4,3 -6,3 -2,0 -4,-1 -5,-3l0 3zm0 -10c0,2 0,4 1,5 1,2 2,2 4,2 1,0 2,0 3,-1 1,-2 2,-3 2,-6 0,-2 -1,-4 -2,-5 -1,-1 -2,-2 -3,-2 -2,0 -3,1 -4,2 -1,1 -1,3 -1,5zm20 10l-3 0 0 -26 3 0 0 9c1,-1 3,-2 5,-2 1,0 2,0 3,0 1,1 2,2 3,2 0,1 1,2 1,3 0,2 1,3 1,4 0,3 -1,6 -3,7 -1,2 -3,3 -5,3 -2,0 -4,-1 -5,-3l0 3zm0 -10c0,2 0,4 0,5 1,2 3,2 4,2 2,0 3,0 4,-1 1,-2 1,-3 1,-6 0,-2 0,-4 -1,-5 -1,-1 -2,-2 -3,-2 -2,0 -3,1 -4,2 -1,1 -1,3 -1,5z"/>
</svg>
