<svg xmlns="http://www.w3.org/2000/svg" xml:space="preserve" width="202px" height="202px" version="1.1" style="shape-rendering:geometricPrecision; text-rendering:geometricPrecision; image-rendering:optimizeQuality; fill-rule:evenodd; clip-rule:evenodd"
viewBox="0 0 202 202">
  <polygon fill="blue" points="94,96 94,62 62,62 62,48 94,48 94,15 108,15 108,48 140,48 140,62 108,62 108,96 "/>
  <polygon fill="none" stroke="blue" stroke-width="1.99959" points="1,1 201,1 201,201 1,201 "/>
  <path fill="blue" d="M17 116l39 0 0 12 -3 0c-1,-2 -1,-3 -2,-4 0,-2 -1,-3 -2,-3 0,-1 -1,-1 -1,-2 -1,0 -2,0 -3,0l-5 0 0 37c0,2 0,3 0,4 0,0 1,1 1,2 0,0 1,1 1,1 1,0 2,0 3,1l0 1 -17 0 0 -1c1,-1 2,-1 2,-1 1,0 1,0 2,-1 0,0 0,0 0,-1 1,0 1,-1 1,-1 0,-1 0,-2 0,-4l0 -37 -4 0c-2,0 -2,0 -3,0 -1,1 -2,1 -2,2 -1,0 -1,1 -2,3 -1,1 -1,3 -1,4l-4 0 0 -12zm55 50c-5,0 -9,-1 -12,-4 -2,-3 -4,-8 -4,-14 0,-4 1,-7 3,-10 1,-3 3,-5 5,-6 3,-1 5,-2 9,-2 5,0 9,2 11,5 3,3 4,7 4,13 0,4 0,7 -2,10 -1,3 -3,5 -5,6 -3,1 -6,2 -9,2zm-9 -18c0,5 1,8 3,11 1,3 4,4 6,4 2,0 4,0 5,-1 1,-1 2,-2 2,-3 1,-2 2,-3 2,-5 0,-2 0,-3 0,-5 0,-4 0,-7 -1,-9 -1,-3 -2,-4 -3,-5 -1,-2 -3,-2 -5,-2 -3,0 -5,1 -6,4 -2,2 -3,6 -3,11zm42 16l0 8c0,2 1,3 1,4 0,0 0,1 0,1 1,1 1,1 1,1 1,1 2,1 3,1l0 2 -15 0 0 -2c1,0 2,0 2,0 1,-1 1,-1 2,-2 0,0 0,-1 0,-2 0,0 0,-2 0,-3l0 -31c0,-2 0,-3 0,-4 0,-1 0,-1 0,-2 0,0 0,-1 -1,-1 0,0 0,-1 -1,-1 0,0 -1,0 -2,0l0 -2 8 -1 3 0 -1 6 1 0c1,-1 2,-2 3,-3 1,-1 2,-1 3,-2 1,0 2,0 3,-1 0,0 1,0 2,0 4,0 7,2 10,5 2,3 3,7 3,13 0,4 -1,7 -2,10 -1,3 -3,5 -5,6 -3,1 -5,2 -9,2 -1,0 -3,0 -5,0 -1,-1 -2,-1 -4,-2zm0 -12c0,3 1,4 1,6 0,1 1,2 1,3 1,1 2,1 3,2 1,0 2,0 4,0 3,0 5,-1 7,-4 1,-2 2,-6 2,-10 0,-10 -3,-15 -8,-15 -2,0 -3,1 -4,1 -1,1 -2,1 -3,2 -1,1 -2,2 -2,3 0,1 -1,2 -1,3l0 9zm42 -36l0 7 -6 0 0 -7 6 0zm-10 48c1,-1 2,-1 2,-1 0,0 1,-1 1,-1 0,0 1,-1 1,-2 0,-1 0,-2 0,-4l0 -15c0,-2 0,-3 0,-4 0,-1 0,-2 -1,-2 0,-1 0,-1 -1,-2 -1,0 -1,0 -2,0l0 -2 8 -1 2 0 0 26c0,2 0,4 0,5 1,0 1,1 2,2 0,0 1,0 2,1l0 1 -14 0 0 -1zm48 -32l0 7 -5 0c0,-1 -1,-3 -1,-4 -1,-1 -2,-1 -2,-2 -1,0 -2,0 -3,0 -2,0 -4,0 -5,2 -1,1 -2,2 -3,5 -1,2 -1,4 -1,8 0,2 0,4 0,5 1,2 1,4 2,5 0,1 1,2 3,3 1,0 2,1 4,1 2,0 3,-1 5,-1 1,-1 2,-2 4,-4l2 3c-1,1 -2,2 -3,3 -1,0 -2,1 -3,2 -1,0 -2,0 -3,1 -1,0 -3,0 -4,0 -4,0 -8,-2 -10,-5 -3,-3 -4,-7 -4,-13 0,-3 1,-6 2,-9 1,-3 3,-5 6,-7 2,-1 5,-2 8,-2 2,0 4,0 6,0 1,1 3,1 5,2z"/>
</svg>
