
<svg xmlns="http://www.w3.org/2000/svg" xml:space="preserve" width="200px" height="200px" version="1.1" style="shape-rendering:geometricPrecision; text-rendering:geometricPrecision; image-rendering:optimizeQuality; fill-rule:evenodd; clip-rule:evenodd"
viewBox="0 0 1268 1268">
  <path fill="#FF3300" d="M0 596l88 -287c203,75 350,141 443,196 -24,-244 -37,-413 -39,-505l280 0c-4,134 -19,302 -45,503 132,-70 283,-135 453,-194l88 287c-162,57 -321,96 -477,114 78,72 188,201 329,385l-229 173c-75,-107 -162,-253 -264,-437 -95,191 -178,337 -250,437l-225 -173c147,-194 254,-322 317,-385 -164,-34 -321,-72 -469,-114z"/>
 
</svg>
