<svg xmlns="http://www.w3.org/2000/svg" width="500" height="500" viewBox="0 0 256 256" shape-rendering="geometricPrecision" text-rendering="geometricPrecision" image-rendering="optimizeQuality" fill-rule="evenodd" clip-rule="evenodd"><path d="M208 250h-42c-4 0-6-3-6-7v-27c0-4 2-7 6-7h42c9 0 16-10 16-21V63c0-12-7-21-16-21h-42c-4 0-6-4-6-8V8c0-4 2-8 6-8h42c26 0 48 28 48 63v125c0 34-22 62-48 62zm-24-131L100 10C93 0 80 7 80 21v62H12C5 83 0 90 0 99v63c0 8 5 15 12 15h68v63c0 14 13 21 20 11l84-110c5-6 5-16 0-22z" fill="#fff"/></svg>