
<svg xmlns="http://www.w3.org/2000/svg" xml:space="preserve" width="189px" height="237px" version="1.1" style="shape-rendering:geometricPrecision; text-rendering:geometricPrecision; image-rendering:optimizeQuality; fill-rule:evenodd; clip-rule:evenodd"
viewBox="0 0 158 197">
  <path fill="red" d="M154 43l-41 -12 -2 -8c0,-3 -3,-5 -6,-6 0,0 0,0 0,0l-39 -12c0,0 0,0 0,0 -3,-1 -7,0 -9,2l-5 6 -41 -13c-3,-1 -7,1 -7,4l-4 11c-1,3 1,6 4,7l143 42c3,1 7,-1 7,-4l4 -10c1,-3 -1,-6 -4,-7z"/>
  <path fill="red" d="M6 181c0,9 7,16 17,16l103 0c10,0 18,-7 18,-16l0 -117 -138 0 0 117z"/>
  <path fill="white" d="M61 91c0,-3 6,-5 14,-5 7,0 13,2 13,5l0 79c0,3 -6,5 -13,5 -8,0 -14,-2 -14,-5l0 -79z"/>
  <path fill="white" d="M19 91c0,-3 6,-5 13,-5 8,0 14,2 14,5l0 79c0,3 -6,5 -14,5 -7,0 -13,-2 -13,-5l0 -79z"/>
  <path fill="white" d="M103 91c0,-3 6,-5 14,-5 7,0 13,2 13,5l0 79c0,3 -6,5 -13,5 -8,0 -14,-2 -14,-5l0 -79z"/>
</svg>
