<svg xmlns="http://www.w3.org/2000/svg" xml:space="preserve" width="166px" height="200px" version="1.1" style="shape-rendering:geometricPrecision; text-rendering:geometricPrecision; image-rendering:optimizeQuality; fill-rule:evenodd; clip-rule:evenodd"
viewBox="0 0 50 60">
  <path fill="#009933" d="M36 0c-7,0 -13,8 -13,18l0 8 -19 0c-2,0 -4,3 -4,6l0 22c0,3 2,6 4,6l30 0c3,0 5,-3 5,-6l0 -22c0,-3 -2,-6 -5,-6l-4 0 0 -8c0,-5 3,-9 6,-9 4,0 7,4 7,9l0 9c0,2 1,3 2,3l2 0c2,0 3,-1 3,-3l0 -9c0,-10 -6,-18 -14,-18z"/>
</svg>
