<svg xmlns="http://www.w3.org/2000/svg" xml:space="preserve" width="296px" height="200px" version="1.1" style="shape-rendering:geometricPrecision; text-rendering:geometricPrecision; image-rendering:optimizeQuality; fill-rule:evenodd; clip-rule:evenodd"
viewBox="0 0 492 333">
  <path fill="#999999" d="M350 218c-61,-55 -155,-55 -217,0 -3,3 -3,9 0,12l18 19c4,3 9,3 12,0 45,-39 113,-39 157,0 4,3 9,3 12,0l19 -19c3,-3 3,-9 -1,-12z"/>
  <path fill="#999999" d="M242 263c-19,0 -34,16 -34,35 0,19 15,35 34,35 19,0 34,-16 34,-35 0,-19 -15,-35 -34,-35z"/>
  <path fill="#999999" d="M488 82c-136,-109 -348,-109 -484,0 -5,4 -5,11 0,15l26 23c5,4 12,4 17,0 112,-89 286,-89 398,0 5,4 12,4 17,0l26 -23c5,-4 5,-11 0,-15l0 0z"/>
  <path fill="#999999" d="M411 156c-95,-89 -243,-89 -338,0 -3,4 -3,9 0,13l18 18c4,3 9,4 12,0 78,-72 199,-72 277,0 4,4 9,3 12,0l19 -18c3,-4 3,-9 0,-13l0 0z"/>
</svg>
